<?xml version="1.0" encoding="UTF-8"?>
<svg viewBox="0 0 563 623" version="1.1" xmlns="http://www.w3.org/2000/svg" xmlns:xlink="http://www.w3.org/1999/xlink">
    <defs></defs>
    <g id="Scribble-Quarks" stroke="none" stroke-width="1" fill="none" fill-rule="evenodd">
        <g id="Group-33" transform="translate(-119.000000, -88.000000)" stroke-width="10">
            <g id="Group-31" transform="translate(46.000000, 24.000000)">
                <ellipse id="Oval-21" stroke="#802AE1" transform="translate(361.500000, 363.500000) rotate(6.000000) translate(-361.500000, -363.500000) " cx="361.5" cy="363.5" rx="264.5" ry="270.5"></ellipse>
                <path d="M368.014898,692 C467.978438,692 535,522.973332 535,372.385487 C535,221.797641 441.00239,60 341.03885,60 C317.676687,60 296.056224,68.837207 276.639381,84.3032143 C212.974177,135.014164 173,256.991051 173,372.385487 C173,522.973332 268.051358,692 368.014898,692 Z" id="Oval-24" stroke="#F407C3" transform="translate(354.000000, 376.000000) rotate(-14.000000) translate(-354.000000, -376.000000) "></path>
                <path d="M323.765275,696 C436.983649,696 560,518.521473 560,369.072367 C560,219.62326 484.72373,57 371.505356,57 C258.286982,57 150,219.62326 150,369.072367 C150,518.521473 210.546902,696 323.765275,696 Z" id="Oval-6" stroke="#FA9211" transform="translate(355.000000, 376.500000) scale(-1, 1) rotate(25.000000) translate(-355.000000, -376.500000) "></path>
                <path d="M365.161663,618 C511.980122,618 631,509.876767 631,376.5 C631,243.123233 511.980122,135 365.161663,135 C218.343203,135 78,243.123233 78,376.5 C78,509.876767 218.343203,618 365.161663,618 Z" id="Oval-2" stroke="#0DF1B9"></path>
                <path d="M379.713589,571 C527.884082,571 648,483.471669 648,375.5 C648,267.528331 527.884082,180 379.713589,180 C231.543095,180 59,272.59197 59,380.563638 C59,488.535307 231.543095,571 379.713589,571 Z" id="Oval-15" stroke="#0E87F9" transform="translate(353.500000, 375.500000) rotate(32.000000) translate(-353.500000, -375.500000) "></path>
                <path d="M359.309168,680 C473.01979,680 573,537.527156 573,369.632592 C573,201.738028 473.01979,72 359.309168,72 C245.598546,72 140,160.896449 140,328.791013 C140,389.3922 152.369482,465.08067 173.151143,529.084254 C204.093103,624.379639 286.642154,680 359.309168,680 Z" id="Oval-17" stroke="#DC0219" transform="translate(356.500000, 376.000000) rotate(18.000000) translate(-356.500000, -376.000000) "></path>
            </g>
        </g>
    </g>
</svg>
